REM DIRINDEX 1\5,1\2\6,1\2\7,1\3\8,1\3\9,1\3\10,1\3\11,1\4\12,1\4\13,1\4\14
REM DIRNAME folder01,folder02,folder03,folder04,folder05,folder06,folder07,folder08,folder09,folder10,folder11,folder12,folder13,folder14
TITLE ""
FILE "4Q_t_289-304.mp3" MP3
  TRACK 01 AUDIO
    TITLE "6:cjc042_1574"
    INDEX 01 00:00:00
  TRACK 02 AUDIO
    TITLE "0:"
    INDEX 01 00:01:01
  TRACK 03 AUDIO
    TITLE "7:cjc042_1575"
    INDEX 01 00:01:56
  TRACK 04 AUDIO
    TITLE "0:"
    INDEX 01 00:02:65
  TRACK 05 AUDIO
    TITLE "6:cjc042_1576"
    INDEX 01 00:03:41
  TRACK 06 AUDIO
    TITLE "0:"
    INDEX 01 00:04:74
  TRACK 07 AUDIO
    TITLE "7:cjc042_1577"
    INDEX 01 00:05:50
  TRACK 08 AUDIO
    TITLE "0:"
    INDEX 01 00:07:68
  TRACK 09 AUDIO
    TITLE "6:cjc042_1578"
    INDEX 01 00:08:34
  TRACK 10 AUDIO
    TITLE "0:"
    INDEX 01 00:09:49
  TRACK 11 AUDIO
    TITLE "7:cjc042_1579"
    INDEX 01 00:10:21
  TRACK 12 AUDIO
    TITLE "0:"
    INDEX 01 00:12:26
  TRACK 13 AUDIO
    TITLE "6:cjc042_1580"
    INDEX 01 00:12:71
  TRACK 14 AUDIO
    TITLE "0:"
    INDEX 01 00:14:02
  TRACK 15 AUDIO
    TITLE "7:cjc042_1581"
    INDEX 01 00:14:53
  TRACK 16 AUDIO
    TITLE "0:"
    INDEX 01 00:15:68
  TRACK 17 AUDIO
    TITLE "6:cjc042_1582"
    INDEX 01 00:16:42
  TRACK 18 AUDIO
    TITLE "0:"
    INDEX 01 00:17:43
  TRACK 19 AUDIO
    TITLE "7:cjc042_1583"
    INDEX 01 00:18:15
  TRACK 20 AUDIO
    TITLE "0:"
    INDEX 01 00:20:39
  TRACK 21 AUDIO
    TITLE "6:cjc042_1584"
    INDEX 01 00:21:09
  TRACK 22 AUDIO
    TITLE "0:"
    INDEX 01 00:22:19
  TRACK 23 AUDIO
    TITLE "7:cjc042_1585"
    INDEX 01 00:22:68
  TRACK 24 AUDIO
    TITLE "0:"
    INDEX 01 00:25:56
  TRACK 25 AUDIO
    TITLE "6:cjc042_1586"
    INDEX 01 00:26:28
  TRACK 26 AUDIO
    TITLE "0:"
    INDEX 01 00:27:38
  TRACK 27 AUDIO
    TITLE "7:cjc042_1587"
    INDEX 01 00:28:08
  TRACK 28 AUDIO
    TITLE "0:"
    INDEX 01 00:34:26
  TRACK 29 AUDIO
    TITLE "6:cjc042_1588"
    INDEX 01 00:35:00
  TRACK 30 AUDIO
    TITLE "0:"
    INDEX 01 00:36:25
  TRACK 31 AUDIO
    TITLE "7:cjc042_1589"
    INDEX 01 00:36:74
  TRACK 32 AUDIO
    TITLE "0:"
    INDEX 01 00:40:34
  TRACK 33 AUDIO
    TITLE "6:cjc042_1590"
    INDEX 01 00:41:04
  TRACK 34 AUDIO
    TITLE "0:"
    INDEX 01 00:42:14
  TRACK 35 AUDIO
    TITLE "7:cjc042_1591"
    INDEX 01 00:42:59
  TRACK 36 AUDIO
    TITLE "0:"
    INDEX 01 00:44:01
  TRACK 37 AUDIO
    TITLE "6:cjc042_1592"
    INDEX 01 00:44:50
  TRACK 38 AUDIO
    TITLE "0:"
    INDEX 01 00:45:73
  TRACK 39 AUDIO
    TITLE "7:cjc042_1593"
    INDEX 01 00:46:43
  TRACK 40 AUDIO
    TITLE "0:"
    INDEX 01 00:49:10
  TRACK 41 AUDIO
    TITLE "6:cjc042_1594"
    INDEX 01 00:49:59
  TRACK 42 AUDIO
    TITLE "0:"
    INDEX 01 00:50:70
  TRACK 43 AUDIO
    TITLE "7:cjc042_1595"
    INDEX 01 00:51:40
  TRACK 44 AUDIO
    TITLE "0:"
    INDEX 01 00:56:22
  TRACK 45 AUDIO
    TITLE "6:cjc042_1596"
    INDEX 01 00:56:67
  TRACK 46 AUDIO
    TITLE "0:"
    INDEX 01 00:58:07
  TRACK 47 AUDIO
    TITLE "7:cjc042_1597"
    INDEX 01 00:58:54
  TRACK 48 AUDIO
    TITLE "0:"
    INDEX 01 01:01:52
  TRACK 49 AUDIO
    TITLE "6:cjc042_1598"
    INDEX 01 01:02:22
  TRACK 50 AUDIO
    TITLE "0:"
    INDEX 01 01:03:47
  TRACK 51 AUDIO
    TITLE "7:cjc042_1599"
    INDEX 01 01:04:21
  TRACK 52 AUDIO
    TITLE "0:"
    INDEX 01 01:06:32
  TRACK 53 AUDIO
    TITLE "6:cjc042_1600"
    INDEX 01 01:07:00
  TRACK 54 AUDIO
    TITLE "0:"
    INDEX 01 01:08:01
  TRACK 55 AUDIO
    TITLE "7:cjc042_1601"
    INDEX 01 01:08:50
  TRACK 56 AUDIO
    TITLE "0:"
    INDEX 01 01:14:43
  TRACK 57 AUDIO
    TITLE "6:cjc042_1602"
    INDEX 01 01:15:11
  TRACK 58 AUDIO
    TITLE "0:"
    INDEX 01 01:16:22
  TRACK 59 AUDIO
    TITLE "7:cjc042_1603"
    INDEX 01 01:16:71
  TRACK 60 AUDIO
    TITLE "0:"
    INDEX 01 01:19:40
  TRACK 61 AUDIO
    TITLE "6:cjc042_1604"
    INDEX 01 01:20:08
  TRACK 62 AUDIO
    TITLE "0:"
    INDEX 01 01:21:25
  TRACK 63 AUDIO
    TITLE "7:cjc042_1605"
    INDEX 01 01:21:72
  TRACK 64 AUDIO
    TITLE "0:"
    INDEX 01 01:24:22
